<?xml version="1.0" encoding="utf-8"?>
<!-- Generator: Adobe Illustrator 27.5.0, SVG Export Plug-In . SVG Version: 6.00 Build 0)  -->
<svg version="1.1" xmlns="http://www.w3.org/2000/svg" xmlns:xlink="http://www.w3.org/1999/xlink" x="0px" y="0px"
	 viewBox="0 0 500 500" style="enable-background:new 0 0 500 500;" xml:space="preserve">
<g id="Background">
	<rect x="0.363" y="0" style="fill:#025187;" width="499.274" height="500"/>
</g>
<g id="Objects">
	<g>
		<ellipse style="fill:#10416B;" cx="250" cy="425.493" rx="220.99" ry="8.861"/>
		<g>
			<g>
				<g>
					<g>
						<circle style="fill:#10416B;" cx="118.443" cy="136.235" r="43.472"/>
						<circle style="fill:#09365B;" cx="118.443" cy="136.235" r="20.521"/>
						<path style="fill:#09365B;" d="M118.443,90.284c-26.031,0-47.133,21.102-47.133,47.133c0,26.031,21.102,47.133,47.133,47.133
							s47.133-21.102,47.133-47.133C165.576,111.386,144.474,90.284,118.443,90.284z M118.443,179.573
							c-23.282,0-42.156-18.874-42.156-42.156c0-23.282,18.874-42.156,42.156-42.156s42.156,18.874,42.156,42.156
							C160.6,160.699,141.726,179.573,118.443,179.573z"/>
						<path style="fill:#006597;" d="M118.443,87.92c-26.684,0-48.315,21.631-48.315,48.315c0,26.684,21.631,48.315,48.315,48.315
							s48.315-21.631,48.315-48.315C166.758,109.552,145.127,87.92,118.443,87.92z M118.443,179.449
							c-23.866,0-43.213-19.347-43.213-43.213c0-23.866,19.347-43.213,43.213-43.213s43.213,19.347,43.213,43.213
							C161.657,160.101,142.31,179.449,118.443,179.449z"/>
						<g>
							<circle style="fill:#006597;" cx="118.443" cy="136.235" r="7.95"/>
						</g>
						<g>
							<path style="fill:#006597;" d="M118.444,138.046c-1,0-1.811-0.811-1.811-1.811V99.002c0-1,0.811-1.811,1.811-1.811
								c1,0,1.811,0.811,1.811,1.811v37.233C120.255,137.235,119.444,138.046,118.444,138.046z"/>
						</g>
						<g>
							<path style="fill:#006597;" d="M136.433,163.246l-19.439-25.924c-0.6-0.8-0.438-1.936,0.363-2.536
								c0.8-0.6,1.936-0.438,2.536,0.363l19.439,25.924c0.6,0.8,0.438,1.936-0.363,2.536
								C138.169,164.209,137.033,164.046,136.433,163.246z"/>
						</g>
					</g>
				</g>
				<g>
					<rect x="232.245" y="105.007" style="fill:#006597;" width="94.548" height="170.699"/>
					<rect x="237.027" y="111.228" style="fill:#10416B;" width="84.985" height="158.256"/>
					<path style="fill:#175283;" d="M237.027,116.048v27.532c4.038,4.006,8.082,8.009,12.118,12.026
						c24.53,24.42,48.717,49.18,72.867,73.974V116.048H237.027z"/>
				</g>
				<g>
					<rect x="337.423" y="105.007" style="fill:#006597;" width="94.548" height="170.699"/>
					<rect x="342.204" y="111.228" style="fill:#10416B;" width="84.985" height="158.256"/>
					<path style="fill:#175283;" d="M342.204,116.048v38.417c27.172,22.339,55.541,43.193,83.97,63.896
						c0.338,0.246,0.678,0.489,1.015,0.735V116.048H342.204z"/>
				</g>
				<g>
					<g>
						<g>
							
								<rect x="319.865" y="228.127" transform="matrix(-0.888 0.4598 -0.4598 -0.888 724.3121 301.8558)" style="fill:#FBCCC0;" width="11.074" height="21.986"/>
						</g>
						<path style="fill:#ED9B9B;" d="M315.431,231.904l5.122,9.892c2.469-0.763,6.081-1.234,8.257,0.268
							c1.81,1.249,3.564,3.752,3.138,6.045l3.426-1.773l-10.108-19.524L315.431,231.904z"/>
					</g>
					<g>
						<path style="fill:#0F090A;" d="M333.398,201.795c-0.391,20.672-5.987,23.727-16.004,26.521s-20.043-0.202-24.032-14.504
							c-3.989-14.303,0.898-28.162,10.916-30.955S333.709,185.339,333.398,201.795z"/>
						<path style="fill:#0F090A;" d="M314.629,196.641c3.473,9.74-4.875,23.469-14.615,26.942
							c-9.74,3.473-20.451-1.608-23.924-11.348c-3.473-9.74-1.236-21.083,14.059-26.598
							C299.876,182.13,311.156,186.901,314.629,196.641z"/>
						<path style="fill:#FBCCC0;" d="M288.352,200.245c-11.012,3.922-12.265,16.435-4.404,26.591
							c1.365,1.764,0.102,2.861-0.872,4.298c-0.507,0.749-0.715,1.51-0.513,2.409c0.289,1.29,1.51,2.824,2.593,3.54
							c0.737,0.487,1.724,0.19,2.459,0.643c0.709,0.437,0.999,1.441,1.23,2.185c0.625,2.012,1.253,4.061,2.422,5.814
							c1.35,2.026,3.2,3.122,5.566,3.499c0.431,0.069,0.871,0.025,1.306-0.019c3.954-0.403,6.714-0.859,10.123-2.793
							c3.029-1.719,6.747-3.138,8.927-5.905c4.385-5.567,5.822-13.323,5.95-20.408c0.048-2.649-0.27-5.344-1.212-7.833
							C317.723,201.151,299.548,196.257,288.352,200.245z"/>
						<path style="fill:#ED9B9B;" d="M308.447,246.312c2.994-1.674,6.605-3.092,8.742-5.804c4.385-5.567,5.822-13.323,5.95-20.408
							c0.048-2.649-0.27-5.344-1.212-7.833c-1.149-3.039-3.348-5.61-6.158-7.665C320.186,218.269,317.301,234.828,308.447,246.312z"
							/>
						<path style="fill:#0F090A;" d="M277.446,208.4c1.964,8.48,7.398,10.547,9.9,9.411c2.502-1.136,3.559,8.891,9.58,9.572
							c0.887,0.1-0.776-4.96-0.905-5.364c-0.422-1.328-0.869-2.652-1.231-3.998c-0.112-0.417-0.432-1.166-0.277-1.589
							c0.258-0.701,1.546-1.292,2.174-1.557c0.869-0.367,1.804-0.569,2.734-0.708c1.235-0.185,2.503-0.277,3.726-0.025
							c1.863,0.384,3.199,1.538,3.89,3.258c0.854,2.127,1.542,4.32,2.056,6.553c0.21,0.915,0.393,1.84,0.71,2.724
							c0.533,1.483,1.449,2.826,2.635,3.864c0.583,0.51,1.228,0.946,1.896,1.337c1.787,1.044,3.779,1.778,5.843,1.937
							s4.2-0.283,5.929-1.421c0.545-0.358,1.045-0.782,1.503-1.246c1.558-1.579,2.774-3.872,3.658-5.893
							c0.999-2.283,1.49-4.763,1.83-7.221c0.734-5.304,0.989-10.675,0.76-16.025c-0.069-1.613-0.196-3.277-0.936-4.712
							c-0.991-1.921-2.924-3.147-4.812-4.2c-1.434-0.799-2.894-1.552-4.376-2.257c-0.936-0.445-1.885-0.873-2.878-1.173
							c-2.18-0.658-4.495-0.679-6.772-0.668c-3.885,0.019-7.771,0.114-11.652,0.286c-1.947,0.086-3.492,0.918-5.371,1.293
							C281.647,193.653,277.446,208.4,277.446,208.4z"/>
						<g>
							<path style="fill:#FBCCC0;" d="M308.863,219.457c1.657,5.012-0.696,10.298-5.257,11.806
								c-4.561,1.508-6.004-2.522-7.661-7.535s-2.901-9.109,1.66-10.617C302.165,211.604,307.206,214.445,308.863,219.457z"/>
							<path style="fill:#ED9B9B;" d="M303.602,231.268c-2.19,0.717-3.653,0.172-4.772-1.157c0.985,0.689,2.228,0.87,3.883,0.325
								c4.562-1.511,6.924-6.79,5.26-11.811c-0.488-1.482-1.272-2.773-2.267-3.816c1.406,1.148,2.525,2.735,3.156,4.648
								C310.516,224.468,308.164,229.757,303.602,231.268z"/>
							<path style="fill:#EFA381;" d="M301.559,225.387c1.015,0.22,0.842-1.357,0.625-2.019c-0.205-0.626-0.495-1.25-0.463-1.908
								c0.035-0.716,0.565-1.533,1.286-1.712c0.292-0.073,0.812-0.013,0.86-0.407c0.048-0.393-0.477-0.655-0.759-0.788
								c-0.841-0.398-1.668-0.593-2.588-0.289c-1.79,0.592-1.302,2.199-0.651,4.166c0.239,0.723,0.66,2.581,1.5,2.899
								C301.437,225.356,301.5,225.375,301.559,225.387z"/>
						</g>
						<g>
							
								<path style="fill:none;stroke:#8F4528;stroke-width:1.4173;stroke-linecap:round;stroke-linejoin:round;stroke-miterlimit:10;" d="
								M288.116,222.275c0,0-2.342-1.575-4.522,0.785"/>
							
								<path style="fill:none;stroke:#8F4528;stroke-width:1.4173;stroke-linecap:round;stroke-linejoin:round;stroke-miterlimit:10;" d="
								M286.378,226.947c0,0,4.56,3.809,3.951-2.585"/>
							<path style="fill:#FF738F;" d="M295.798,231.39c0.197,0.67-0.931,1.59-2.519,2.056c-1.588,0.466-3.034,0.301-3.231-0.369
								s0.931-1.59,2.519-2.056C294.155,230.555,295.602,230.72,295.798,231.39z"/>
						</g>
					</g>
				</g>
				<g>
					<path style="fill:#FFC742;" d="M105.237,250.322c-1.937,0-3.507,1.57-3.507,3.507v5.636c0,5.326,4.317,9.643,9.643,9.643h6.763
						v-18.785H105.237L105.237,250.322z M105.237,253.328h9.894v12.774h-3.757c-3.66,0-6.637-2.978-6.637-6.637v-5.636
						C104.736,253.553,104.961,253.328,105.237,253.328"/>
					<path style="fill:#FFC742;" d="M110.518,247.947v15.654c0,5.273,2.819,9.875,7.022,12.421h17.766
						c4.203-2.546,7.022-7.148,7.022-12.421v-15.654H110.518z"/>
					<path style="fill:#FEB335;" d="M110.518,259.955v3.646c0,5.273,2.819,9.875,7.022,12.421h17.766
						c1.21-0.733,2.301-1.641,3.247-2.682C127.639,273.857,116.714,268.881,110.518,259.955z"/>
				</g>
				<g>
					<g>
						<path style="fill:#FFC742;" d="M123.725,348.546c0,0-29.009,3.825-19.764,26.459H90.094
							C90.094,375.005,81.133,350.459,123.725,348.546z"/>
						<path style="fill:#FFC742;" d="M105.488,328.415c0,0-15.154,26.445-5.91,40.405H85.711
							C85.711,368.82,82.23,352.01,105.488,328.415z"/>
						<g>
							<path style="fill:#FFFFFF;" d="M92.496,324.071c-0.645,1.861-1.1,3.776-1.53,5.695c-0.436,1.917-0.833,3.843-1.188,5.777
								c-0.728,3.864-1.465,7.73-2.012,11.63c-1.081,7.799-1.625,15.685-1.402,23.575l-0.1,0.005
								c-0.25-3.942-0.297-7.897-0.186-11.85c0.13-3.953,0.456-7.898,0.894-11.83c0.442-3.931,0.963-7.863,1.826-11.732
								c0.46-1.927,0.911-3.857,1.494-5.754c0.575-1.894,1.197-3.792,2.113-5.559L92.496,324.071z"/>
						</g>
						<g>
							<path style="fill:#FFFFFF;" d="M103.271,315.757c-1.077,2.181-1.917,4.464-2.723,6.755c-0.814,2.288-1.572,4.598-2.284,6.92
								c-1.438,4.64-2.847,9.295-4.039,14.011c-1.179,4.718-2.225,9.473-3.033,14.272c-0.822,4.796-1.452,9.628-1.833,14.485
								l-0.1-0.006c0.249-4.87,0.747-9.727,1.439-14.559c0.712-4.829,1.663-9.621,2.749-14.381
								c1.092-4.758,2.294-9.502,3.866-14.132c0.816-2.304,1.627-4.611,2.585-6.863c0.948-2.25,1.951-4.498,3.288-6.556
								L103.271,315.757z"/>
						</g>
						<g>
							<path style="fill:#FFFFFF;" d="M81.425,311.515c0.898,2.283,1.432,4.686,1.91,7.081c0.488,2.398,0.822,4.82,1.16,7.241
								c0.614,4.851,0.844,9.739,0.961,14.62c0.112,4.881,0.085,9.766-0.183,14.641c-0.288,4.872-0.771,9.731-1.501,14.552
								l-0.099-0.014c0.598-4.836,0.946-9.696,1.101-14.56c0.168-4.864,0.094-9.733-0.117-14.591
								c-0.225-4.859-0.675-9.701-1.156-14.535c-0.233-2.418-0.514-4.832-0.854-7.237c-0.332-2.406-0.698-4.812-1.317-7.164
								L81.425,311.515z"/>
						</g>
						<path style="fill:#FFC742;" d="M48.133,347.879c0,0,29.009,3.825,19.764,26.458h13.867
							C81.764,374.337,90.726,349.791,48.133,347.879z"/>
						<path style="fill:#FFC742;" d="M68.192,313.929c0,0,15.154,42.876,5.91,65.509h13.867
							C87.969,379.438,91.45,352.182,68.192,313.929z"/>
						<path style="fill:#FFFFFF;" d="M81.79,312.943L81.79,312.943L81.79,312.943c-1.751-0.593-2.689-2.493-2.096-4.244l0,0h0
							C81.445,309.292,82.383,311.192,81.79,312.943z"/>
						<path style="fill:#FFFFFF;" d="M91.937,325.485L91.937,325.485L91.937,325.485c-0.819-1.657-0.139-3.665,1.519-4.483h0l0,0
							C94.274,322.659,93.594,324.666,91.937,325.485z"/>
						<path style="fill:#FFFFFF;" d="M102.394,317.46L102.394,317.46L102.394,317.46c-0.678-1.72,0.167-3.664,1.886-4.341h0l0,0
							C104.958,314.838,104.114,316.782,102.394,317.46z"/>
					</g>
					<polygon style="fill:#29B8F5;" points="103.263,425.493 109.556,367.464 62.302,367.464 68.595,425.493 					"/>
					<path style="fill:#00A8E5;" d="M103.263,425.493c-15.486-7.886-28.827-17.317-37.485-25.975l2.817,25.975H103.263z"/>
					<polygon style="fill:#008DBF;" points="110.021,371.72 110.501,367.464 61.357,367.464 61.837,371.72 					"/>
				</g>
				<g>
					<g>
						
							<rect x="114.854" y="282.871" transform="matrix(-1 -4.768731e-11 4.768731e-11 -1 517.85 590.6237)" style="fill:#29B8F5;" width="288.143" height="24.881"/>
						<rect x="114.857" y="282.869" style="fill:#00A8E5;" width="288.137" height="3.959"/>
						
							<rect x="110.719" y="275.349" transform="matrix(-1 -4.761625e-11 4.761625e-11 -1 518.1826 558.353)" style="fill:#29B8F5;" width="296.745" height="7.656"/>
						
							<rect x="114.858" y="307.667" transform="matrix(-1 -4.482116e-11 4.482116e-11 -1 316.2803 720.9627)" style="fill:#29B8F5;" width="86.564" height="105.63"/>
						
							<rect x="121.501" y="317.832" transform="matrix(-1 -4.490420e-11 4.490420e-11 -1 316.2803 721.16)" style="fill:#008DBF;" width="73.279" height="85.496"/>
						
							<rect x="121.501" y="320.223" transform="matrix(-1 -4.484869e-11 4.484869e-11 -1 314.141 723.5509)" style="fill:#00A8E5;" width="71.14" height="83.105"/>
						
							<rect x="194.251" y="413.296" transform="matrix(-1 -4.591184e-11 4.591184e-11 -1 395.6737 838.7888)" style="fill:#0083B2;" width="7.171" height="12.196"/>
						
							<rect x="114.858" y="413.296" transform="matrix(-1 -4.464352e-11 4.464352e-11 -1 236.887 838.7888)" style="fill:#0083B2;" width="7.171" height="12.196"/>
						<rect x="385.199" y="307.731" style="fill:#29B8F5;" width="12.432" height="117.762"/>
					</g>
					<path style="fill:#00A8E5;" d="M397.617,316.525v-8.773h-12.426v5.242C389.35,314.121,393.487,315.352,397.617,316.525z"/>
					<g>
						<circle style="fill:#008DBF;" cx="130.956" cy="361.366" r="3.741"/>
						<circle style="fill:#FFFFFF;" cx="130.956" cy="359.547" r="4.042"/>
					</g>
				</g>
				<g>
					<g>
						<g>
							<path style="fill:#FFFFFF;" d="M274.639,412.279c0,0,0.433-0.451,0.829,1.299c0.396,1.75-0.006,8.917-1.27,10.305
								c-1.265,1.388-30.526,2.829-31.536-0.083c-0.912-2.632,23.063-14.651,23.063-14.651L274.639,412.279z"/>
							<path style="fill:#FBCCC0;" d="M265.458,400.61l-1.378,10.312c0,0,4.229,3.72,10.559,1.357l1.378-10.312L265.458,400.61z"/>
							<path style="fill:#ED9B9B;" d="M269.553,405.503c-1.464-0.403-3.004-0.932-4.563-1.393l0.468-3.5l10.559,1.357l-0.685,5.125
								C273.406,406.561,271.48,406.033,269.553,405.503z"/>
						</g>
						<path style="fill:#A6A8AB;" d="M280.604,402.136l6.129-78.15c0.526-5.707-4.323-10.625-10.512-10.663l-6.121-0.038
							c-5.908-0.036-10.696,4.405-10.644,9.872l0.417,78.682L280.604,402.136z"/>
						<path style="fill:#A6A8AB;" d="M260.229,320.264c-0.997,5.863,2.387,11.488,7.85,13.046l62.667,17.875
							c9.046,2.58,19.025,0.477,24.319-3.033c3.579-2.372,4.602-10.511,5.692-16.449l1.975-9.609l-89.976-11.54
							C266.817,309.793,261.28,314.085,260.229,320.264L260.229,320.264z"/>
					</g>
					<g>
						<g>
							<path style="fill:#FFFFFF;" d="M241.766,414.356c0,0,0.54-0.315,0.441,1.477c-0.099,1.792-2.452,8.573-4.049,9.561
								c-1.597,0.988-30.131-5.656-30.302-8.733c-0.155-2.781,26.199-7.76,26.199-7.76L241.766,414.356z"/>
							<path style="fill:#FBCCC0;" d="M236.14,400.615l-4.155,9.538c0,0,3.046,4.738,9.781,4.203l4.155-9.538L236.14,400.615z"/>
							<path style="fill:#ED9B9B;" d="M238.735,406.444c-1.297-0.789-2.633-1.721-4.006-2.592l1.41-3.237l9.781,4.203l-2.065,4.74
								C242.15,408.519,240.442,407.482,238.735,406.444z"/>
						</g>
						<path style="fill:#D0D2D3;" d="M249.984,407.095l28.926-71.681c2.549-5.133-0.199-11.469-5.958-13.737l-5.695-2.243
							c-5.497-2.165-11.565,0.25-13.489,5.368l-23.013,74.539L249.984,407.095z"/>
						<path style="fill:#D0D2D3;" d="M253.774,330.34c-0.268,5.941,3.783,11.106,9.397,11.98l64.391,10.024
							c13.641,2.124,26.285-4.11,27.384-23.028l0.777-9.779l-90.712-0.375C259.023,319.137,254.057,324.077,253.774,330.34
							L253.774,330.34z"/>
					</g>
				</g>
				<g>
					<path style="fill:#ED9B9B;" d="M259.093,266.919c-0.099,4.654,3.707,8.617,8.499,8.851c0,0,64.266-0.465,64.912-0.554
						c0.617-3.222,0.872-6.489,0.997-9.772c-0.581-0.119-65.552-6.528-65.552-6.528
						C263.157,258.682,259.192,262.265,259.093,266.919z"/>
					<path style="fill:#FFC742;" d="M395.092,302.374c-0.256,3.224-1.795,7.298-2.318,10.057c-0.656,3.459-1.354,7.021-3.301,9.955
						c-1.287,1.939-3.065,3.508-4.977,4.833c-6.532,4.526-14.661,6.31-22.607,6.333c-7.947,0.022-15.799-1.607-23.541-3.398
						c-2.233-0.517-4.552-1.09-6.31-2.561c-2.562-2.143-3.432-5.763-5.818-8.1c-1.53-1.498-3.726-2.551-4.341-4.601
						c-0.327-1.089-0.127-2.255-0.028-3.387c0.94-10.83-8.757-22.283-14.002-31.104c-4.096-6.888-9.735-17.77-13.761-24.699
						c-2.993-8.061,0.806-17.058,8.671-20.534l24.14-5.977c7.865-3.476,18.544,2.091,22.49,9.73
						c2.692,5.213,36.443,48.166,39.575,52.337c1.885,2.514,5.578,5.886,6.085,9.112
						C395.142,300.98,395.149,301.656,395.092,302.374z"/>
					<g>
						<path style="fill:#FBCCC0;" d="M257.796,271.04L257.796,271.04c-2.319-4.113-0.864-9.328,3.25-11.647l17.998-10.145
							c4.113-2.319,9.328-0.864,11.647,3.25v0c2.319,4.113,0.864,9.328-3.25,11.647l-17.998,10.145
							C265.329,276.609,260.115,275.154,257.796,271.04z"/>
						<path style="fill:#ED9B9B;" d="M271.653,267.366c0.751,1.466,1.506,2.934,2.269,4.399l13.821-7.791
							c3.947-2.225,5.343-7.228,3.118-11.175l-0.34-0.603c-2.225-3.947-7.228-5.343-11.175-3.118l-13.121,7.396
							C268.393,259.895,269.947,264.037,271.653,267.366z"/>
						<path style="fill:#FFC742;" d="M314.694,245.786c2.53,9.068-18.949,20.598-24.727,23.453c-5.778,2.855-7.622,4.205-9.522,3.39
							c-1.901-0.815-11.518-13.596-11.56-19.649c-0.041-6.053,22.279-12.305,28.613-15.482
							C306.957,232.752,311.571,234.594,314.694,245.786z"/>
						<path style="fill:#FEB335;" d="M334.949,326.613c-2.827-3.496-3.204-8.772-5.136-12.774c-2.443-5.061-5.075-9.914-7.06-15.191
							c-2.104-5.594-3.983-11.265-6.426-16.726c-2.275-5.086-4.945-9.926-7.476-14.88c-1.045-2.046-2.188-4.77-3.725-6.963l0,0l0,0
							c-0.204-0.29-0.415-0.569-0.633-0.837c-0.025-0.031-0.05-0.063-0.075-0.093c-0.223-0.27-0.453-0.529-0.694-0.771
							c-0.013-0.013-0.027-0.024-0.039-0.037c-0.214-0.212-0.436-0.408-0.663-0.594c-0.06-0.049-0.12-0.097-0.181-0.144
							c-0.249-0.19-0.503-0.369-0.769-0.522c-0.153-0.087-0.304-0.16-0.455-0.224c-0.049-0.021-0.098-0.035-0.148-0.053
							c-0.102-0.037-0.203-0.074-0.304-0.101c-0.058-0.016-0.115-0.026-0.173-0.039c-0.092-0.02-0.183-0.039-0.274-0.051
							c-0.061-0.008-0.121-0.013-0.181-0.018c-0.088-0.007-0.176-0.012-0.263-0.013c-0.06,0-0.12,0.001-0.18,0.003
							c-0.087,0.004-0.174,0.011-0.261,0.02c-0.059,0.007-0.117,0.013-0.176,0.023c-0.089,0.014-0.177,0.032-0.264,0.052
							c-0.055,0.012-0.11,0.023-0.164,0.038c-0.095,0.025-0.189,0.055-0.283,0.085c-0.046,0.015-0.093,0.028-0.139,0.045
							c-0.116,0.041-0.23,0.088-0.345,0.137c-0.024,0.01-0.048,0.019-0.072,0.029c-0.14,0.062-0.279,0.129-0.417,0.2
							c-0.028,0.015-0.056,0.031-0.085,0.046c-0.109,0.058-0.218,0.117-0.326,0.18c-0.045,0.026-0.09,0.054-0.136,0.081
							c-0.09,0.054-0.179,0.108-0.268,0.164c-0.051,0.032-0.102,0.066-0.153,0.099c-0.084,0.054-0.167,0.109-0.251,0.164
							c-0.051,0.034-0.101,0.068-0.152,0.103c-0.085,0.058-0.169,0.116-0.253,0.174c-0.047,0.033-0.093,0.065-0.14,0.098
							c-0.102,0.072-0.204,0.144-0.305,0.216c-0.046,0.033-0.091,0.065-0.137,0.098c-0.002,0.001-0.004,0.002-0.005,0.004l0,0
							c-0.224,0.16-0.446,0.318-0.664,0.468c-2.15,1.481-4.48,2.747-6.781,3.978c-3.846,2.057-7.76,3.88-11.9,5.173
							c1.789,2.372,3.37,4.087,4.028,4.369c1.901,0.815,3.744-0.535,9.523-3.39c1.824-0.901,5.212-2.67,8.914-4.95
							c3.068,5.614,6.336,11.685,8.967,16.111c5.245,8.822,14.942,20.274,14.002,31.104c-0.098,1.133-0.299,2.298,0.028,3.387
							c0.616,2.05,2.812,3.104,4.342,4.601c2.387,2.337,3.257,5.956,5.818,8.1c1.758,1.471,4.077,2.045,6.31,2.561
							c0.212,0.049,0.425,0.096,0.636,0.145C337.51,329.227,336.117,328.057,334.949,326.613z"/>
					</g>
				</g>
				<g>
					<rect x="165.352" y="251.428" style="fill:#008DBF;" width="72.141" height="5.481"/>
					<rect x="187.234" y="226.415" style="fill:#29B8F5;" width="28.377" height="25.013"/>
					<path style="fill:#00A4DF;" d="M188.301,240.19c3.22,0.93,6.423,1.912,9.617,2.926c5.881,1.866,11.751,3.794,17.692,5.465
						v-22.166h-28.377v13.46C187.59,239.981,187.946,240.087,188.301,240.19z"/>
					<path style="fill:#29B8F5;" d="M264.868,153.734H137.977c-2.005,0-3.63,1.625-3.63,3.63v74.174c0,2.005,1.625,3.63,3.63,3.63
						h126.892c2.005,0,3.63-1.625,3.63-3.63v-74.174C268.498,155.359,266.873,153.734,264.868,153.734z"/>
					<rect x="140.849" y="160.51" style="fill:#FFFFFF;" width="121.148" height="59.693"/>
					<g>
						<ellipse style="fill:#FFFFFF;" cx="192.568" cy="118.103" rx="23.668" ry="15.605"/>
						<polygon style="fill:#FFFFFF;" points="206.365,128.561 219.662,146.277 192.568,133.708 						"/>
						<g>
							<circle style="fill:#025187;" cx="180.66" cy="118.103" r="3.796"/>
							<circle style="fill:#025187;" cx="192.568" cy="118.103" r="3.796"/>
							<circle style="fill:#025187;" cx="204.475" cy="118.103" r="3.796"/>
						</g>
					</g>
					<g>
						<polygon style="fill:#FFFFFF;" points="119.112,144.003 129.804,155.649 127.891,158.238 113.948,148.434 						"/>
						<polygon style="fill:#FFFFFF;" points="123.228,134.316 133.16,151.771 130.943,153.032 117.964,137.311 						"/>
						<polygon style="fill:#FFFFFF;" points="135.66,138.183 131.6,139.611 135.982,148.226 138.838,147.222 						"/>
					</g>
					<g>
						<g>
							<path style="fill:#0096C8;" d="M192.529,188.039v22.022c0,0.275-0.092,0.519-0.219,0.742l-10.843-11.262L192.529,188.039z"/>
							<path style="fill:#0096C8;" d="M167.213,199.541l-10.853,11.26c-0.126-0.223-0.217-0.466-0.217-0.74v-22.018L167.213,199.541
								z"/>
							<polygon style="fill:#0096C8;" points="177.777,199.541 174.34,203.104 170.903,199.541 169.058,197.611 157.987,186.122 
								190.681,186.122 179.622,197.611 							"/>
							<polygon style="fill:#0096C8;" points="169.058,201.456 174.34,206.935 179.622,201.456 189.379,211.593 159.29,211.593 
															"/>
						</g>
						<circle style="fill:#FF5160;" cx="192.087" cy="185.692" r="5.587"/>
					</g>
					<g>
						<rect x="220.997" y="165.768" style="fill:#BDD4EE;" width="29.814" height="49.177"/>
						<rect x="220.997" y="165.768" style="fill:#84C3EB;" width="29.814" height="4.827"/>
					</g>
					<g>
						<rect x="203.335" y="165.768" style="fill:#BDD4EE;" width="14.907" height="24.589"/>
						<rect x="203.335" y="165.768" style="fill:#84C3EB;" width="14.907" height="2.414"/>
					</g>
					<g>
						<rect x="232.245" y="225.457" style="fill:#00A4DF;" width="13.856" height="9.734"/>
						
							<rect x="233.53" y="224.418" transform="matrix(0.9895 -0.1444 0.1444 0.9895 -31.3109 37.1892)" style="fill:#FFC742;" width="13.856" height="19.616"/>
					</g>
				</g>
				<g>
					<rect x="149.369" y="256.909" style="fill:#ECEFF0;" width="104.63" height="10.152"/>
					<rect x="149.369" y="267.061" style="fill:#ECEFF0;" width="5.594" height="8.288"/>
					<path style="fill:#C4C8CA;" d="M154.963,271.416v-4.355h-5.594v2.14C151.228,269.92,153.009,270.822,154.963,271.416z"/>
					<rect x="248.405" y="267.061" style="fill:#ECEFF0;" width="5.594" height="8.288"/>
					<path style="fill:#C4C8CA;" d="M252.197,273.273c0.588,0.386,1.204,0.737,1.802,1.112v-7.324h-5.594v3.837
						C249.698,271.603,250.931,272.442,252.197,273.273z"/>
				</g>
				<g>
					<g>
						<path style="fill:#C4C8CA;" d="M412.583,274.456l-18.159,67.699c-1.951,7.274-8.544,12.331-16.074,12.331h-95.051v-5.431
							h39.726c7.733,0,14.582-4.992,16.949-12.353l17.033-52.963c2.826-8.786,10.999-14.743,20.228-14.743h31.16
							C411.246,268.995,413.321,271.701,412.583,274.456z"/>
						<path style="fill:#ECEFF0;" d="M350.177,320.222c3.446-9.948,6.88-19.891,10.7-29.703c2.483-6.377,4.963-12.773,6.951-19.317
							c-5.039,2.491-9.02,6.934-10.822,12.537l-17.033,52.963c-2.367,7.362-9.216,12.353-16.949,12.353h-39.726v5.431h47.89
							c3.983,0,7.546-2.471,8.953-6.198C343.649,338.994,346.925,329.608,350.177,320.222z"/>
						<path style="fill:#868A8C;" d="M408.226,268.991h-30.994c-9.233,0-17.404,5.962-20.228,14.749l-17.03,52.96
							c-2.366,7.362-9.221,12.359-16.945,12.359h-39.732v1.388h-4.49v-5.431h39.72c7.737,0,14.58-4.985,16.957-12.347l17.03-52.972
							c2.824-8.786,10.995-14.736,20.228-14.736h31.163C406.247,264.96,408.069,266.807,408.226,268.991z"/>
					</g>
					<path style="fill:#9EA2A4;" d="M334.872,425.493L334.872,425.493c-1.72,0-2.938-1.373-2.744-3.092l7.66-67.915h9.504
						l-10.835,67.915C338.184,424.12,336.592,425.493,334.872,425.493z"/>
					<path style="fill:#9EA2A4;" d="M292.731,425.493L292.731,425.493c-1.72,0-2.938-1.373-2.744-3.092l7.66-67.915h9.505
						l-10.835,67.915C296.043,424.12,294.45,425.493,292.731,425.493z"/>
					<path style="fill:#9EA2A4;" d="M379.943,425.493L379.943,425.493c1.72,0,2.938-1.373,2.744-3.092l-7.66-67.915h-9.504
						l10.835,67.915C376.631,424.12,378.224,425.493,379.943,425.493z"/>
					<path style="fill:#868A8C;" d="M346.262,373.488l3.032-19.003h-9.504l-1.482,13.141
						C340.963,369.573,343.616,371.526,346.262,373.488z"/>
					<path style="fill:#868A8C;" d="M305.076,367.499l2.076-13.013h-9.504l-0.934,8.278
						C299.469,364.399,302.26,365.971,305.076,367.499z"/>
					<path style="fill:#868A8C;" d="M377.275,374.42l-2.248-19.935h-9.504l2.33,14.602
						C370.976,371.151,374.544,372.894,377.275,374.42z"/>
				</g>
				<g>
					<polygon style="fill:none;stroke:#C4C8CA;stroke-width:3.8812;stroke-miterlimit:10;" points="446.763,423.695 408.1,423.695 
						402.996,356.284 451.867,356.284 					"/>
					<polygon style="fill:none;stroke:#C4C8CA;stroke-width:3.8812;stroke-miterlimit:10;" points="439.789,423.695 
						415.074,423.695 411.811,356.284 443.051,356.284 					"/>
					<polygon style="fill:none;stroke:#C4C8CA;stroke-width:3.8812;stroke-miterlimit:10;" points="431.836,423.695 
						423.027,423.695 421.864,356.284 432.999,356.284 					"/>
					<g>
						
							<line style="fill:none;stroke:#C4C8CA;stroke-width:3.8812;stroke-miterlimit:10;" x1="404.119" y1="370.357" x2="450.744" y2="370.357"/>
						
							<line style="fill:none;stroke:#C4C8CA;stroke-width:3.8812;stroke-miterlimit:10;" x1="404.852" y1="385.025" x2="450.011" y2="385.025"/>
						
							<line style="fill:none;stroke:#C4C8CA;stroke-width:3.8812;stroke-miterlimit:10;" x1="406.321" y1="399.693" x2="448.542" y2="399.693"/>
						
							<line style="fill:none;stroke:#C4C8CA;stroke-width:3.8812;stroke-miterlimit:10;" x1="407.393" y1="414.362" x2="447.47" y2="414.362"/>
					</g>
				</g>
			</g>
			<g>
				<g>
					<path style="fill:#FFFFFF;" d="M404.595,142.251v-7.721c0-0.725,0.193-1.386,0.588-1.983l33.183-47.441
						c0.129-0.193,0.161-0.363,0.097-0.492c-0.064-0.137-0.234-0.201-0.492-0.201h-31.796c-1.056,0-1.58-0.524-1.58-1.58v-6.738
						c0-1.056,0.524-1.588,1.58-1.588h43.781c1.056,0,1.58,0.532,1.58,1.588v7.721c0,0.733-0.193,1.394-0.596,1.983l-33.175,47.441
						c-0.137,0.202-0.169,0.363-0.097,0.5c0.064,0.129,0.226,0.193,0.492,0.193h31.796c1.056,0,1.58,0.532,1.58,1.588v6.73
						c0,1.064-0.524,1.588-1.58,1.588h-43.781C405.118,143.839,404.595,143.315,404.595,142.251z"/>
				</g>
				<g>
					<path style="fill:#FFFFFF;" d="M363.787,153.461v-4.558c0-0.428,0.114-0.818,0.347-1.17l19.586-28.002
						c0.076-0.114,0.095-0.214,0.057-0.29c-0.038-0.081-0.138-0.119-0.29-0.119H364.72c-0.623,0-0.932-0.309-0.932-0.932v-3.977
						c0-0.623,0.309-0.937,0.932-0.937h25.842c0.623,0,0.932,0.314,0.932,0.937v4.558c0,0.433-0.114,0.823-0.352,1.17
						l-19.581,28.002c-0.081,0.119-0.1,0.214-0.057,0.295c0.038,0.076,0.133,0.114,0.29,0.114h18.768
						c0.623,0,0.932,0.314,0.932,0.937v3.972c0,0.628-0.309,0.937-0.932,0.937H364.72
						C364.096,154.398,363.787,154.089,363.787,153.461z"/>
				</g>
				<g>
					<path style="fill:#FFFFFF;" d="M386.909,189.692v-2.152c0-0.202,0.054-0.386,0.164-0.553l9.25-13.225
						c0.036-0.054,0.045-0.101,0.027-0.137c-0.018-0.038-0.065-0.056-0.137-0.056h-8.864c-0.294,0-0.44-0.146-0.44-0.44v-1.878
						c0-0.294,0.146-0.443,0.44-0.443h12.205c0.294,0,0.44,0.148,0.44,0.443v2.152c0,0.204-0.054,0.389-0.166,0.553l-9.248,13.225
						c-0.038,0.056-0.047,0.101-0.027,0.139c0.018,0.036,0.063,0.054,0.137,0.054h8.864c0.294,0,0.44,0.148,0.44,0.443v1.876
						c0,0.297-0.146,0.443-0.44,0.443h-12.205C387.055,190.135,386.909,189.989,386.909,189.692z"/>
				</g>
				<g>
					<path style="fill:#FFFFFF;" d="M355.723,202.845v-2.967c0-0.279,0.074-0.533,0.226-0.762l12.75-18.228
						c0.05-0.074,0.062-0.139,0.037-0.189c-0.025-0.053-0.09-0.077-0.189-0.077H356.33c-0.406,0-0.607-0.201-0.607-0.607v-2.589
						c0-0.406,0.201-0.61,0.607-0.61h16.822c0.406,0,0.607,0.204,0.607,0.61v2.967c0,0.282-0.074,0.536-0.229,0.762l-12.747,18.228
						c-0.053,0.077-0.065,0.139-0.037,0.192c0.025,0.05,0.087,0.074,0.189,0.074h12.217c0.406,0,0.607,0.204,0.607,0.61v2.586
						c0,0.409-0.201,0.61-0.607,0.61H356.33C355.924,203.455,355.723,203.253,355.723,202.845z"/>
				</g>
			</g>
		</g>
	</g>
</g>
</svg>
